# xmcd
# 
# Track frame offsets:
#     150
#     18030
#     39667
#     64940
#     83002
#     106012
#     133027
#     155365
#     178452
#     195675
# 
# Disc length: 2894
# 
# Revision: 4
# Processed by: cddbd v1.5.2PL0 Copyright (c) Steve Scherf et al.
# Submitted via: fre:ac v1.0.17
# 
DISCID=7d0b4c0a
DTITLE=Patrick O'Hearn - Between Two Worlds (2017-2-P)
DYEAR=1987
DGENRE=New Age
TTITLE0=Rain Maker
TTITLE1=Sky Juice
TTITLE2=Cape Perpetual
TTITLE3=Gentle Was the Night
TTITLE4=Fire Ritual
TTITLE5=87 Dreams of a Lifetime
TTITLE6=Dimension D
TTITLE7=Forever the Optimist
TTITLE8=Journey to Yoroba
TTITLE9=Between Two Worlds
EXTD=
EXTT0=
EXTT1=
EXTT2=
EXTT3=
EXTT4=
EXTT5=
EXTT6=
EXTT7=
EXTT8=
EXTT9=
PLAYORDER=
